# xmcd
#
# Track frame offsets: 
#        150
#        16737
#        33361
#        49647
#        63145
#        76653
#        90074
#        102901
#        117197
#        134239
#        150676
#        162777
#        178467
#        191653
#        205654
#        219881
#
# Disc length: 3150 seconds
#
# Revision: 1
# Processed by: cddbd v1.5.2PL0 Copyright (c) Steve Scherf et al.
# Submitted via: ExactAudioCopy v1.5
#
DISCID=c40c4c10
DTITLE=Vários Artistas - Show De Viola
DYEAR=1900
DGENRE=Sertanejo
TTITLE0=Tião Carreiro and Paraíso - Homem Até Debaixo D'Água
TTITLE1=João Mulato and Pardinho - A Pancada Da Verdade
TTITLE2=Pardinho and Pardal - Rei Dos Delegados
TTITLE3=Peão Carreiro and Zé Paulo - Seguindo Os Seus Passos
TTITLE4=Ronaldo Viola and João Carvalho - Paixão Goiana
TTITLE5=Rionegro and Solimões - Cuitelinho
TTITLE6=Tião Carreiro and Pardinho - Tenente Mineirinho
TTITLE7=Goiano and Paranaense - A Viola E A Saudade (Tributo à Tião Carr
TTITLE7=eiro)
TTITLE8=Eli Silva and Zé Goiano - Fogo De Viúva
TTITLE9=Teodoro and Sampaio - Lição De Moral
TTITLE10=Ronaldo Viola and João Carvalho - Flor De Goiás
TTITLE11=João Mulato and Douradinho - Meu Reino Encantado
TTITLE12=Goiano and Paranaense - O Poder Do Criador
TTITLE13=Zé Garoto and Timboré - Vou Aonde Tem Amor
TTITLE14=Liu and Leu - Fazenda São Francisco
TTITLE15=Felipe and Falcão part. Bruno - Que Pena
EXTD=
EXTT0=
EXTT1=
EXTT2=
EXTT3=
EXTT4=
EXTT5=
EXTT6=
EXTT7=
EXTT8=
EXTT9=
EXTT10=
EXTT11=
EXTT12=
EXTT13=
EXTT14=
EXTT15=
PLAYORDER=
